<svg xmlns="http://www.w3.org/2000/svg" fill="none" viewBox="0 0 2127 2109">
  <path d="M786.889 1585.31c-28.486 52.92-59.003 108.69-91.258 167.45l56.6 26.17c6.975-15.28 14.441-32.01 22.37-49.93 36.917-8.75 24.458-40.15 81.188-40.36 218.671 109.73 221.511-138.33 422.241 44.62-84.41-167.85-314.428-258.87-439.889-65.56l152.965-44.71-58.038 25.07-140.003 38.9c34.392-78.64 76.057-174.56 124.9-274.99 51.49-2.01 57.417-68.36 151.555-68.72 369.8 185.52 374.52-233.95 714.02 75.45-142.76-283.82-531.74-437.669-743.85-110.83l258.62-75.61c-119.14 51.54-222.32 75.12-346.315 111.47C1202.27 972.042 1238.87 521.327 1129.39 319.94c-13.4 147.407-89.13 286.688-112.52 323.37 89.78-250.418 87.07-325.335 87.25-345.61.3-45.679-77.68-104.996-97.07-138.017-387.609 499.485 181.67 523.425-53.56 1088.077-46.233-113.11-107.989-228.19-140.638-338.808l109.937 246.008C1034.4 781.568 665.166 584.957 356.488 660.075c455.561 58.167 139.069 333.492 520.02 495.075 60.179 71.35 6.176 134.06 47.017 160.87-32.266 70.38-71.198 146.66-115.661 230.09l-61.26-132.39-18.499-60.46 65.026 145.5c65.996-220.8-172.824-415.45-355.396-371.03 269.375 34.47 102.767 275.65 328.015 371.15 36.136 42.79 5.378 50.77 21.139 86.43z" fill="#81D494"/>
</svg>
